<?xml version="1.0" encoding="UTF-8" standalone="no"?>
<!-- Created with Inkscape (http://www.inkscape.org/) -->

<svg
   width="366.70901"
   height="118.903"
   viewBox="0 0 97.025096 31.459752"
   version="1.1"
   id="svg1"
   xml:space="preserve"
   inkscape:version="1.3.2 (091e20e, 2023-11-25, custom)"
   sodipodi:docname="logo.svg"
   xmlns:inkscape="http://www.inkscape.org/namespaces/inkscape"
   xmlns:sodipodi="http://sodipodi.sourceforge.net/DTD/sodipodi-0.dtd"
   xmlns="http://www.w3.org/2000/svg"
   xmlns:svg="http://www.w3.org/2000/svg"><sodipodi:namedview
     id="namedview1"
     pagecolor="#ffffff"
     bordercolor="#000000"
     borderopacity="0.25"
     inkscape:showpageshadow="2"
     inkscape:pageopacity="0.0"
     inkscape:pagecheckerboard="0"
     inkscape:deskcolor="#d1d1d1"
     inkscape:document-units="px"
     inkscape:zoom="2.5510752"
     inkscape:cx="167.96839"
     inkscape:cy="28.027398"
     inkscape:window-width="1920"
     inkscape:window-height="991"
     inkscape:window-x="-9"
     inkscape:window-y="-9"
     inkscape:window-maximized="1"
     inkscape:current-layer="layer1"
     showgrid="false" /><defs
     id="defs1">
	
	
	
	

	

	

		
		
		
		
		
		
		
		
		
		
		
		
		
		
		
		
		
		
		
		
		
		
		
		
		
		
		
		
		
		
	</defs><g
     inkscape:label="Layer 1"
     inkscape:groupmode="layer"
     id="layer1"><g
       id="g3"
       transform="translate(-20.707761,-23.179955)"><circle
         style="fill:#fba400;fill-opacity:1;stroke-width:1.56995;stroke-linecap:round;stroke-linejoin:round"
         id="path3"
         cx="36.437649"
         cy="38.909843"
         r="15.729888" /><path
         d="m 60.438742,44.44231 v -0.506976 l 0.0338,-0.321084 -0.0338,-0.0169 q -0.557673,0.506976 -1.453331,0.760464 -0.878758,0.253488 -2.027904,0.253488 -1.774416,0 -2.551779,-0.62527 -0.777363,-0.64217 -0.777363,-1.842013 0,-1.199843 0.912557,-1.858912 0.912556,-0.675968 2.720771,-0.675968 1.166045,0 1.977206,0.236589 0.828061,0.219689 1.199843,0.473177 -0.0169,-1.504028 -0.574572,-2.129299 -0.557674,-0.642169 -1.926509,-0.642169 -0.912557,0 -1.68992,0.219689 -0.777363,0.202791 -1.284339,0.473178 -0.506976,0.253488 -0.659069,0.405581 v -0.337984 l -0.168992,-1.26744 q 0.490077,-0.21969 1.487129,-0.43938 1.013952,-0.236588 2.450384,-0.236588 2.1124,0 3.092554,0.895657 0.997053,0.895658 0.997053,2.788368 v 3.37984 q 0,0.42248 0.0845,0.64217 0.101395,0.21969 0.253488,0.371782 z m -2.923561,-1.030851 q 1.351936,0 2.129299,-0.388682 0.794262,-0.388681 0.794262,-1.013952 0,-0.540774 -0.709766,-0.878758 -0.692867,-0.337984 -2.027904,-0.337984 -1.26744,0 -1.825114,0.337984 -0.540774,0.321085 -0.540774,1.013952 0,0.659069 0.506976,0.963254 0.523875,0.304186 1.673021,0.304186 z m 14.364312,-0.760464 0.168992,1.149146 q 0,0.0338 -0.42248,0.253488 -0.42248,0.20279 -1.233641,0.388681 -0.811162,0.168992 -1.960307,0.168992 -2.484183,0 -3.531933,-1.081548 -1.047751,-1.098449 -1.047751,-3.024957 0,-2.061703 1.115347,-3.092554 1.115348,-1.030851 3.295345,-1.030851 1.064649,0 1.825113,0.118294 0.777363,0.101395 1.199843,0.236589 0.42248,0.118294 0.42248,0.135194 v 0.337984 l 0.337984,1.47023 q 0,-0.0507 -0.439379,-0.337984 -0.439379,-0.287286 -1.250541,-0.523875 -0.811161,-0.253488 -1.977206,-0.253488 -2.822166,0 -2.822166,2.95736 0,1.622323 0.84496,2.264493 0.84496,0.62527 2.433484,0.62527 0.963255,0 1.639223,-0.236589 0.675968,-0.253488 1.030851,-0.523875 0.371782,-0.287286 0.371782,-0.337984 z m 7.587751,1.791315 q 0.0169,0 0.0507,-0.0338 0.0338,-0.0338 0.0338,-0.135194 0,-0.321084 -0.354883,-1.013952 -1.081549,-2.179997 -2.940461,-2.179997 -0.388682,0 -0.506976,0.0338 -0.118295,0.0169 -0.152093,0.101395 -0.0338,0.0845 -0.0338,0.371782 v 1.842013 q 0,0.43938 0.0676,0.675968 0.0845,0.21969 0.168992,0.304186 0.101395,0.0676 0.101395,0.0338 h -2.399686 q 0,0.0338 0.0845,-0.0338 0.101395,-0.0845 0.168992,-0.304186 0.0845,-0.236588 0.0845,-0.675968 v -9.632544 q 0,-0.439379 -0.0845,-0.659069 -0.0676,-0.219689 -0.168992,-0.304185 -0.0845,-0.0845 -0.0845,-0.0507 h 2.061702 v 1.030851 5.542938 q 0,0.270387 0.0338,0.371782 0.0338,0.101396 0.152093,0.135194 0.135193,0.0169 0.506976,0.0169 0.811161,0 1.436432,-0.574573 0.62527,-0.574572 0.912557,-1.740617 0.101395,-0.405581 0.101395,-0.709767 0,-0.135193 -0.0338,-0.20279 -0.0169,-0.0845 -0.0507,-0.101395 -0.0169,-0.0169 -0.0169,-0.0169 h 2.754569 q 0,-0.0169 -0.118294,0.0507 -0.118295,0.0676 -0.304186,0.304186 -0.185891,0.219689 -0.439379,0.675968 -0.456278,0.84496 -0.777363,1.318137 -0.321085,0.473178 -0.760464,0.84496 -0.439379,0.354884 -1.081549,0.625271 0.760464,0.253488 1.47023,0.777363 0.490077,0.371782 0.912557,0.895658 0.42248,0.523875 0.963255,1.402633 0.270387,0.43938 0.490076,0.675968 0.21969,0.21969 0.354884,0.287287 0.135193,0.0676 0.135193,0.0507 z m 6.320314,-6.725881 v 4.512086 q 0,0.726666 0.253488,0.963255 0.253488,0.219689 0.760464,0.219689 0.506976,0 0.912557,-0.236589 0.42248,-0.253488 0.675968,-0.540774 0.270387,-0.287287 0.270387,-0.321085 v 0.523875 l 0.168992,0.963255 q 0,0.0338 -0.321084,0.253488 -0.304186,0.20279 -0.878759,0.388681 -0.557674,0.168992 -1.351936,0.168992 -1.166045,0 -1.68992,-0.490076 Q 84.06384,43.61425 84.06384,42.482003 v -4.765574 h -1.520928 v -1.182944 q 0.794262,0 1.216742,-0.185892 0.439379,-0.20279 0.625271,-0.675968 0.185891,-0.490077 0.185891,-1.385734 h 1.216742 v 2.247594 h 3.227748 q -0.0338,0.0338 -0.118295,0.20279 -0.0676,0.168992 -0.152093,0.439379 -0.0676,0.253488 -0.0676,0.540775 z m 8.770688,-1.351936 q 0.642169,0 1.132246,0.152092 0.490077,0.152093 0.777363,0.337984 0.304186,0.185892 0.304186,0.202791 l -0.337984,1.419533 v 0.506976 q 0,-0.0338 -0.388682,-0.371783 -0.388681,-0.337984 -0.980153,-0.608371 -0.591472,-0.287286 -1.318138,-0.287286 -0.743565,0 -1.233642,0.574572 -0.490077,0.574573 -0.490077,1.757517 v 3.37984 q 0,0.43938 0.0676,0.675968 0.0845,0.21969 0.168992,0.304186 0.101395,0.0676 0.101395,0.0338 h -2.399686 q 0,0.0338 0.0845,-0.0338 0.101395,-0.0845 0.168992,-0.304186 0.0845,-0.236588 0.0845,-0.675968 v -5.711929 q 0,-0.43938 -0.0845,-0.659069 -0.0676,-0.21969 -0.168992,-0.304186 -0.0845,-0.0845 -0.0845,-0.0507 0.608371,0 1.06465,-0.0676 0.456278,-0.0845 0.692867,-0.152093 0.253488,-0.0845 0.304185,-0.118294 v 0.84496 l -0.0338,0.287286 0.0338,0.0338 q 0.895658,-1.166044 2.534881,-1.166044 z m 7.046954,0 q 3.86992,0 3.86992,3.717824 v 0.794262 q 0,-0.0338 -0.38869,-0.101395 -0.38868,-0.0676 -1.63922,-0.0676 h -4.444488 q 0,1.284339 0.743565,1.994106 0.760463,0.709766 2.213793,0.709766 1.03085,0 1.72372,-0.20279 0.70977,-0.202791 1.08155,-0.43938 0.37178,-0.253488 0.37178,-0.287286 v 0.337984 l 0.16899,1.115347 q 0,0.0338 -0.45627,0.202791 -0.43938,0.168992 -1.25055,0.321085 -0.79426,0.152092 -1.89271,0.152092 -2.484179,0 -3.464332,-1.064649 -0.963255,-1.081549 -0.963255,-3.041856 0,-1.943408 1.098448,-3.041856 1.115348,-1.098448 3.227749,-1.098448 z m 2.18,3.227747 q 0,-0.794263 -0.50698,-1.419533 -0.50698,-0.62527 -1.67302,-0.62527 -0.70977,0 -1.26744,0.236588 -0.540776,0.236589 -0.844961,0.64217 -0.287287,0.388682 -0.287287,0.828061 0,0.168992 0.101395,0.253488 0.118295,0.0845 0.371783,0.0845 z m 9.10867,4.85007 q 0.0169,0 0.0507,-0.0338 0.0338,-0.0338 0.0338,-0.135194 0,-0.321084 -0.35488,-1.013952 -1.08155,-2.179997 -2.94046,-2.179997 -0.38869,0 -0.50698,0.0338 -0.11829,0.0169 -0.15209,0.101395 -0.0338,0.0845 -0.0338,0.371782 v 1.842013 q 0,0.43938 0.0676,0.675968 0.0845,0.21969 0.16899,0.304186 0.10139,0.0676 0.10139,0.0338 h -2.39968 q 0,0.0338 0.0845,-0.0338 0.1014,-0.0845 0.16899,-0.304186 0.0845,-0.236588 0.0845,-0.675968 v -9.632544 q 0,-0.439379 -0.0845,-0.659069 -0.0676,-0.219689 -0.16899,-0.304185 -0.0845,-0.0845 -0.0845,-0.0507 h 2.0617 v 1.030851 5.542938 q 0,0.270387 0.0338,0.371782 0.0338,0.101396 0.15209,0.135194 0.13519,0.0169 0.50698,0.0169 0.81116,0 1.43643,-0.574573 0.62527,-0.574572 0.91255,-1.740617 0.1014,-0.405581 0.1014,-0.709767 0,-0.135193 -0.0338,-0.20279 -0.0169,-0.0845 -0.0507,-0.101395 -0.0169,-0.0169 -0.0169,-0.0169 h 2.75457 q 0,-0.0169 -0.11829,0.0507 -0.11829,0.0676 -0.30419,0.304186 -0.18589,0.219689 -0.43937,0.675968 -0.45628,0.84496 -0.77737,1.318137 -0.32108,0.473178 -0.76046,0.84496 -0.43938,0.354884 -1.08155,0.625271 0.76046,0.253488 1.47023,0.777363 0.49008,0.371782 0.91256,0.895658 0.42248,0.523875 0.96325,1.402633 0.27039,0.43938 0.49008,0.675968 0.21969,0.21969 0.35488,0.287287 0.13519,0.0676 0.13519,0.0507 z"
         id="text1"
         style="font-size:16.8992px;font-family:'red rose';-inkscape-font-specification:'red rose';text-align:center;text-anchor:middle;stroke-width:10.6452;stroke-linecap:round;stroke-linejoin:round"
         transform="scale(1.0155316,0.98470595)"
         aria-label="acktrek" /><path
         d="m 37.766247,35.829265 q 0,-0.03342 -0.267392,-0.183832 -0.25068,-0.150408 -0.768752,-0.284104 -0.518072,-0.133696 -1.303536,-0.133696 h -1.203264 q -0.367664,0 -0.50136,0.03342 -0.116984,0.01671 -0.150408,0.116984 -0.03342,0.08356 -0.03342,0.350952 v 7.18616 q 0,0.434512 0.06685,0.66848 0.08356,0.217256 0.183832,0.300816 0.100272,0.06685 0.100272,0.03342 h -2.573648 q 0,0.03342 0.100272,-0.03342 0.100272,-0.08356 0.16712,-0.300816 0.08356,-0.233968 0.08356,-0.66848 v -7.18616 q 0,-0.267392 -0.03342,-0.350952 -0.03342,-0.100272 -0.150408,-0.116984 -0.116984,-0.03342 -0.484648,-0.03342 h -1.219976 q -0.785464,0 -1.303536,0.133696 -0.518072,0.133696 -0.785464,0.284104 -0.25068,0.150408 -0.25068,0.183832 l 0.33424,-1.604352 v -0.33424 h 9.659536 v 0.33424 z m 5.481544,0.100272 q 0.635056,0 1.119704,0.150408 0.484648,0.150408 0.768752,0.33424 0.300816,0.183832 0.300816,0.200544 l -0.33424,1.403808 v 0.50136 q 0,-0.03342 -0.384376,-0.367664 -0.384376,-0.33424 -0.969296,-0.601632 -0.58492,-0.284104 -1.303536,-0.284104 -0.735328,0 -1.219976,0.568208 -0.484648,0.568208 -0.484648,1.738048 v 3.3424 q 0,0.434512 0.06685,0.66848 0.08356,0.217256 0.16712,0.300816 0.100272,0.06685 0.100272,0.03342 h -2.373104 q 0,0.03342 0.08356,-0.03342 0.100272,-0.08356 0.16712,-0.300816 0.08356,-0.233968 0.08356,-0.66848 v -5.648656 q 0,-0.434512 -0.08356,-0.651768 -0.06685,-0.217256 -0.16712,-0.300816 -0.08356,-0.08356 -0.08356,-0.05014 0.601632,0 1.052856,-0.06685 0.451224,-0.08356 0.685192,-0.150408 0.25068,-0.08356 0.300816,-0.116984 v 0.8356 l -0.03342,0.284104 0.03342,0.03342 q 0.885736,-1.153128 2.5068,-1.153128 z"
         id="text2"
         style="font-size:16.712px;font-family:'red rose';-inkscape-font-specification:'red rose';text-align:center;text-anchor:middle;stroke-width:10.5272;stroke-linecap:round;stroke-linejoin:round"
         aria-label="Tr" /><path
         d="m 98.487437,47.65461 q 0.01511,0.09064 0.01511,0.124627 0,0.06043 -0.388989,0.46452 l -0.472073,0.483404 q -1.223614,1.329358 -2.21308,2.541643 -0.48718,0.5967 -0.732658,0.951699 -0.1775,0.256808 -0.290797,0.256808 -0.192606,0 -0.192606,-0.185052 0,-0.388989 3.293184,-3.965417 0.234148,-0.253031 0.634466,-0.60803 -0.743987,0.14351 -1.752336,0.645796 -0.09064,0.04532 -0.132181,0.04532 -0.13218,0 -0.13218,-0.200159 0,-0.219042 0.853509,-0.521169 0.5967,-0.215265 1.102763,-0.324786 0.623137,-0.132181 1.182072,-0.132181 0.634466,0 0.929042,0.241702 0.32856,0.268137 0.32856,0.883721 0,0.570265 -0.774199,1.144306 -0.895051,0.660903 -2.371697,0.706222 0.09441,0.211489 0.287021,1.012125 0.177499,0.725105 0.245478,0.811966 0.07175,0.08686 0.294574,0.08686 0.04532,0 0.0642,0.03021 -0.0038,0.07931 -0.185053,0.143511 -0.151064,0.05287 -0.253031,0.05287 -0.132181,0 -0.264362,-0.08686 -0.13218,-0.08686 -0.188829,-0.377658 l -0.15484,-0.725105 q -0.09441,-0.415425 -0.196382,-0.713775 -0.04154,-0.113298 -0.147287,-0.294574 -0.147287,-0.147287 -0.147287,-0.177499 0,-0.09819 0.336116,-0.09819 0.124627,0 0.203936,0.09819 0.566488,0 1.378454,-0.324787 0.815743,-0.328563 1.208508,-0.721328 0.475848,-0.47585 0.475848,-0.808189 0,-0.547606 -0.940368,-0.547606 -0.370106,0 -0.902605,0.08686 z m 1.355795,3.693502 -0.777977,0.592924 q -0.596701,0.415425 -0.891274,0.415425 -0.04532,0 -0.04532,-0.04532 0,-0.07176 0.07553,-0.08686 0.230372,-0.04154 0.392765,-0.132181 0.283244,-0.15484 0.921487,-0.660902 l 0.997015,-0.81952 q 0.28703,-0.253031 0.35123,-0.253031 0.0944,0 0.20771,0.105745 0.21904,-0.16617 0.38899,-0.16617 0.25681,0 0.25681,0.275691 0,0.411648 -0.65713,1.121646 -0.66846,0.717551 -1.080104,0.717551 -0.385212,0 -0.385212,-0.404094 0,-0.211489 0.245478,-0.660903 z m 1.280258,0.0076 q 0.13974,-0.13218 0.27947,-0.358776 0.15484,-0.260584 0.15484,-0.415424 0,-0.143511 -0.12462,-0.143511 -0.18506,0 -0.37389,0.234149 -0.18505,0.230372 -0.18505,0.419201 0,0.211489 0.24925,0.264361 z m -0.3701,-0.472073 q -0.770424,0.672232 -0.770424,1.09521 0,0.181276 0.173724,0.181276 0.28324,0 0.88372,-0.683562 -0.31723,-0.07553 -0.31723,-0.407872 0,-0.08686 0.0302,-0.185052 z m 1.52952,0.679785 q -1.00835,0.793084 -1.38979,0.793084 -0.0453,0 -0.0453,-0.0491 0,-0.06798 0.0906,-0.08308 0.355,-0.05665 0.98191,-0.547605 l 0.48718,-0.381435 0.78176,-0.623137 q 0.53627,-0.370106 0.91771,-0.370106 0.28324,0 0.31723,0.283244 0.14729,-0.139733 0.20394,-0.139733 0.12462,0 0.12462,0.101967 0,0.132181 -0.58159,0.80819 -0.57782,0.676009 -0.57782,0.789307 0,0.07931 0.12463,0.08308 0.12463,0.0038 0.12463,0.0642 0,0.07553 -0.25681,0.07553 -0.25303,0 -0.25303,-0.222818 0,-0.1775 0.20393,-0.506063 l -0.46829,0.396542 q -0.34367,0.256808 -0.54761,0.256808 -0.32478,0 -0.32478,-0.328563 0,-0.181277 0.0869,-0.400319 z m 1.87696,-1.10654 q -0.22282,0 -0.92149,0.66468 -0.69867,0.664679 -0.69867,0.887498 0,0.101967 0.0982,0.101967 0.21526,0 0.92148,-0.649573 0.71,-0.653349 0.71,-0.879944 0,-0.124628 -0.10952,-0.124628 z m 1.15564,0.993243 -0.71378,0.547605 q -0.52872,0.358776 -0.81952,0.358776 -0.0453,0 -0.0453,-0.04532 0,-0.06798 0.0755,-0.08686 0.2908,-0.07176 0.52873,-0.215265 0.35877,-0.211489 1.00457,-0.777977 0.64957,-0.566488 1.00079,-0.774201 0.24926,-0.147286 0.44942,-0.147286 0.33611,0 0.35122,0.279467 0.56649,-0.713775 1.28404,-1.525741 1.10276,-1.253827 1.31803,-1.253827 0.12085,0 0.12085,0.135957 0,0.113298 -0.3059,0.434308 -0.57027,0.592924 -1.69947,1.918506 -1.38601,1.627709 -1.38601,1.839198 0,0.08686 0.12463,0.09064 0.12463,0.0038 0.12463,0.0642 0,0.07553 -0.18128,0.07553 -0.29835,0 -0.29835,-0.245478 0,-0.196382 0.24926,-0.611807 -0.74399,0.793083 -1.05745,0.793083 -0.29079,0 -0.29079,-0.30968 0,-0.173723 0.16617,-0.543828 z m 0.23037,0.657126 q 0.21526,0 0.85351,-0.64202 0.63824,-0.645796 0.63824,-0.861062 0,-0.109521 -0.10197,-0.109521 -0.26436,0 -0.86484,0.626914 -0.60047,0.626913 -0.60047,0.906381 0,0.07931 0.0755,0.07931 z m 3.60664,-1.43888 -1.20473,0.997019 q -0.91016,0.691116 -1.27649,0.691116 -0.0453,0 -0.0453,-0.0491 0,-0.0642 0.0755,-0.08308 0.27569,-0.06798 0.42676,-0.151063 0.23792,-0.124628 0.99702,-0.728882 0.34367,-0.268137 0.98946,-0.853508 0.2417,-0.253032 0.34745,-0.253032 0.21149,0 0.21149,0.135957 0,0.173723 -0.42676,0.721329 0.8233,-0.755318 1.13676,-0.755318 0.10574,0 0.1926,0.06798 0.0869,0.0642 0.0869,0.16617 0,0.151063 -0.20393,0.44186 0.76287,-0.751541 1.20095,-0.751541 0.25303,0 0.25303,0.203936 0,0.264361 -0.61936,0.898828 -0.61558,0.634466 -0.61558,0.76287 0,0.09819 0.1284,0.101968 0.12841,0 0.12841,0.06043 0,0.07553 -0.21904,0.07553 -0.29458,0 -0.29458,-0.260584 0,-0.294574 0.54005,-0.906381 0.54006,-0.615584 0.54006,-0.687339 0,-0.04532 -0.0567,-0.04532 -0.2266,0 -0.98947,0.713775 -0.63069,0.589148 -0.92904,0.955477 -0.18128,0.226595 -0.26814,0.226595 -0.14728,0 -0.14728,-0.135957 0,-0.139734 0.59292,-0.800637 0.59292,-0.660902 0.59292,-0.815743 0,-0.06798 -0.0755,-0.06798 -0.19638,0 -0.89505,0.657126 -0.60048,0.566488 -0.84595,0.883721 -0.19261,0.249255 -0.33612,0.249255 -0.1284,0 -0.1284,-0.113298 0,-0.14351 0.52494,-0.796859 z m 3.11568,0.895051 q -1.00835,0.793084 -1.38978,0.793084 -0.0453,0 -0.0453,-0.0491 0,-0.06798 0.0906,-0.08308 0.355,-0.05665 0.98191,-0.547605 l 0.48718,-0.381435 0.78175,-0.623137 q 0.53628,-0.370106 0.91771,-0.370106 0.28325,0 0.31724,0.283244 0.14728,-0.139733 0.20393,-0.139733 0.12463,0 0.12463,0.101967 0,0.132181 -0.58159,0.80819 -0.57782,0.676009 -0.57782,0.789307 0,0.07931 0.12463,0.08308 0.12462,0.0038 0.12462,0.0642 0,0.07553 -0.25681,0.07553 -0.25303,0 -0.25303,-0.222818 0,-0.1775 0.20394,-0.506063 l -0.4683,0.396542 q -0.34367,0.256808 -0.5476,0.256808 -0.32479,0 -0.32479,-0.328563 0,-0.181277 0.0869,-0.400319 z m 1.87697,-1.10654 q -0.22282,0 -0.92149,0.66468 -0.69867,0.664679 -0.69867,0.887498 0,0.101967 0.0982,0.101967 0.21527,0 0.92149,-0.649573 0.71,-0.653349 0.71,-0.879944 0,-0.124628 -0.10952,-0.124628 z m 2.19797,0.128404 q -0.49851,0.441861 -1.10654,0.917711 l -0.67601,0.517392 q -0.49473,0.336117 -0.79308,0.336117 -0.0453,0 -0.0453,-0.0491 0,-0.0642 0.0944,-0.08308 0.12841,-0.02266 0.32857,-0.113298 0.23792,-0.101967 0.99702,-0.702445 l 0.93659,-0.781753 q 0.81197,-0.668456 0.87239,-0.668456 0.13973,0 0.13973,0.15484 0,0.06042 -0.37765,0.562711 0.44563,-0.373882 0.7251,-0.373882 0.29457,0 0.29457,0.317234 0,0.411648 -0.46074,0.92904 -0.39654,0.449414 -0.82707,0.672232 0.0453,0.01133 0.44564,0.01133 0.0491,0 0.0491,0.06043 0,0.07931 -0.29457,0.07931 -0.2417,0 -0.40787,-0.07175 -0.0906,0.03399 -0.18506,0.03399 -0.37766,0 -0.35122,-0.528722 l -2.02047,2.273505 q -0.0718,0.08309 -0.13218,0.08309 -0.1133,0 -0.1133,-0.185053 0,-0.181276 0.7742,-1.061221 l 0.78553,-0.857285 z m -0.13973,1.442657 q 0.43808,-0.249255 0.81196,-0.747765 0.37766,-0.498509 0.37766,-0.660902 0,-0.105745 -0.11707,-0.105745 -0.22282,0 -0.70622,0.422978 -0.34745,0.302127 -0.62692,0.61936 0.10952,0 0.1624,0.192606 0.0717,0.245478 0.0982,0.279468 z m -0.15107,0.05287 -0.068,-0.249255 q -0.0566,-0.200159 -0.0831,-0.200159 -0.0755,0 -0.0755,0.256808 0,0.211489 0.15106,0.211489 0.0415,0 0.0755,-0.01888 z"
         id="text3"
         style="font-size:7.73445px;font-family:'Vladimir Script';-inkscape-font-specification:'Vladimir Script';text-align:center;text-anchor:middle;stroke-width:4.87208;stroke-linecap:round;stroke-linejoin:round"
         aria-label="Roadmap" /></g></g></svg>
