<?xml version="1.0" encoding="UTF-8" standalone="no"?>
<!-- Created with Inkscape (http://www.inkscape.org/) -->

<svg
   width="457.672"
   height="305.87701"
   viewBox="0 0 121.09238 80.92996"
   version="1.1"
   id="svg1"
   xml:space="preserve"
   sodipodi:docname="main-dark.svg"
   inkscape:version="1.3.2 (091e20e, 2023-11-25, custom)"
   xmlns:inkscape="http://www.inkscape.org/namespaces/inkscape"
   xmlns:sodipodi="http://sodipodi.sourceforge.net/DTD/sodipodi-0.dtd"
   xmlns="http://www.w3.org/2000/svg"
   xmlns:svg="http://www.w3.org/2000/svg"><sodipodi:namedview
     id="namedview1"
     pagecolor="#ffffff"
     bordercolor="#000000"
     borderopacity="0.25"
     inkscape:showpageshadow="2"
     inkscape:pageopacity="0.0"
     inkscape:pagecheckerboard="0"
     inkscape:deskcolor="#d1d1d1"
     inkscape:document-units="px"
     inkscape:zoom="2.768771"
     inkscape:cx="100.22497"
     inkscape:cy="156.92883"
     inkscape:window-width="1920"
     inkscape:window-height="991"
     inkscape:window-x="-9"
     inkscape:window-y="-9"
     inkscape:window-maximized="1"
     inkscape:current-layer="layer1" /><defs
     id="defs1" /><g
     inkscape:label="Layer 1"
     inkscape:groupmode="layer"
     id="layer1"><g
       id="g27"
       transform="translate(-2.2974151,-2.702841)"><path
         id="path1"
         style="color:#000000;fill:#ffffff;stroke-linecap:round;stroke-linejoin:round;-inkscape-stroke:none"
         d="m 11.540672,17.832767 a 0.25249699,0.25249699 0 0 0 -0.251664,0.251664 v 16.123563 a 7.0949564,7.0949564 0 0 1 0.251664,-0.0181 7.0949564,7.0949564 0 0 1 0.252181,0.006 V 18.084431 a 0.25249699,0.25249699 0 0 0 -0.252181,-0.251664 z m -0.251664,30.529407 v 16.12253 a 0.25249699,0.25249699 0 0 0 0.251664,0.25218 0.25249699,0.25249699 0 0 0 0.252181,-0.25218 v -16.12253 a 7.0949564,7.0949564 0 0 1 -0.252181,0.0181 7.0949564,7.0949564 0 0 1 -0.251664,-0.0181 z" /><rect
         style="fill:#f6bc1a;fill-opacity:1;stroke:none;stroke-width:0.499999;stroke-linecap:round;stroke-linejoin:round;stroke-dasharray:none;stroke-opacity:1"
         id="rect5"
         width="3.4879344"
         height="3.2490349"
         x="9.9401693"
         y="64.402878" /><path
         id="rect8"
         style="fill:#f6bc1a;fill-opacity:1;stroke-width:0.499999;stroke-linecap:round;stroke-linejoin:round"
         d="m 17.701245,37.940837 v 0.0052 a 7.0949564,7.0949564 0 0 1 0.898137,3.10472 0.25,0.25 0 0 1 0.03721,-0.0155 h 2.500105 a 0.25,0.25 0 0 1 0.250114,0.250114 0.25,0.25 0 0 1 -0.250114,0.249597 h -2.500105 a 0.25,0.25 0 0 1 -0.0072,-0.0031 7.0949564,7.0949564 0 0 1 -0.744141,3.097485 h 28.3068 a 7.0949564,7.0949564 0 0 1 -0.756543,-3.096968 0.25,0.25 0 0 1 -0.0057,0.0026 h -2.292883 a 0.25,0.25 0 0 1 -0.250114,-0.249597 0.25,0.25 0 0 1 0.250114,-0.250114 h 2.292883 a 0.25,0.25 0 0 1 0.03824,0.0062 7.0949564,7.0949564 0 0 1 0.914156,-3.10007 z m 4.435388,3.094384 h 2.500106 a 0.25,0.25 0 0 1 0.250114,0.250114 0.25,0.25 0 0 1 -0.250114,0.249597 h -2.500106 a 0.25,0.25 0 0 1 -0.250114,-0.249597 0.25,0.25 0 0 1 0.250114,-0.250114 z m 3.500045,0 h 2.500106 a 0.25,0.25 0 0 1 0.250114,0.250114 0.25,0.25 0 0 1 -0.250114,0.249597 h -2.500106 a 0.25,0.25 0 0 1 -0.250114,-0.249597 0.25,0.25 0 0 1 0.250114,-0.250114 z m 3.500045,0 h 2.500106 a 0.25,0.25 0 0 1 0.250114,0.250114 0.25,0.25 0 0 1 -0.250114,0.249597 h -2.500106 a 0.25,0.25 0 0 1 -0.250114,-0.249597 0.25,0.25 0 0 1 0.250114,-0.250114 z m 3.500045,0 h 2.500105 a 0.25,0.25 0 0 1 0.249598,0.250114 0.25,0.25 0 0 1 -0.249598,0.249597 h -2.500105 a 0.25,0.25 0 0 1 -0.250114,-0.249597 0.25,0.25 0 0 1 0.250114,-0.250114 z m 3.500044,0 h 2.500106 a 0.25,0.25 0 0 1 0.249597,0.250114 0.25,0.25 0 0 1 -0.249597,0.249597 h -2.500106 a 0.25,0.25 0 0 1 -0.250114,-0.249597 0.25,0.25 0 0 1 0.250114,-0.250114 z m 3.500045,0 h 2.500106 a 0.25,0.25 0 0 1 0.249597,0.250114 0.25,0.25 0 0 1 -0.249597,0.249597 h -2.500106 a 0.25,0.25 0 0 1 -0.250114,-0.249597 0.25,0.25 0 0 1 0.250114,-0.250114 z" /><path
         id="rect9"
         style="fill:#5bb6f5;fill-opacity:1;stroke:none;stroke-width:0.499999;stroke-linecap:round;stroke-linejoin:round;stroke-dasharray:none;stroke-opacity:1"
         d="m 58.668254,38.017318 0.375305,0.465604 c 0.453928,0.798207 0.373288,1.676939 0.492342,2.587439 0.026,-0.0169 0.05491,-0.02882 0.08527,-0.03514 h 2.500106 c 0.137959,-6.3e-5 0.249892,0.111639 0.250114,0.249598 6.2e-5,0.13816 -0.111954,0.250176 -0.250114,0.250113 h -2.500106 c -0.01593,-0.0048 -0.03134,-0.01123 -0.04599,-0.01912 0.02139,0.170785 0.03656,0.342292 0.04547,0.514181 -0.0051,0.918099 -0.527625,1.826486 -0.878827,2.674772 H 86.9549 c -0.351203,-0.848286 -0.534425,-1.756673 -0.539502,-2.674772 0.0072,-0.171135 0.0207,-0.341952 0.04031,-0.512114 -0.01324,0.0069 -0.02708,0.01261 -0.04134,0.01705 H 84.12148 c -0.13816,6.3e-5 -0.250176,-0.111953 -0.250114,-0.250113 2.22e-4,-0.137959 0.112155,-0.249661 0.250114,-0.249598 h 2.292884 c 0.0265,-2.8e-5 0.05284,0.0042 0.07803,0.0124 0.153816,-1.087948 0.558215,-2.125304 1.181323,-3.030306 z m 4.452958,3.017903 h 2.500106 c 0.137958,-6.3e-5 0.249891,0.11164 0.250113,0.249598 6.2e-5,0.138159 -0.111954,0.250175 -0.250113,0.250113 h -2.500106 c -0.13816,6.3e-5 -0.250176,-0.111953 -0.250114,-0.250113 2.22e-4,-0.137959 0.112155,-0.249661 0.250114,-0.249598 z m 3.500045,0 h 2.500105 c 0.137959,-6.3e-5 0.249892,0.111639 0.250114,0.249598 6.2e-5,0.13816 -0.111954,0.250176 -0.250114,0.250113 h -2.500105 c -0.13816,6.3e-5 -0.250176,-0.111953 -0.250114,-0.250113 2.22e-4,-0.137959 0.112155,-0.249661 0.250114,-0.249598 z m 3.500044,0 h 2.500106 c 0.137959,-6.3e-5 0.249892,0.111639 0.250114,0.249598 6.2e-5,0.13816 -0.111954,0.250176 -0.250114,0.250113 h -2.500106 c -0.13816,6.3e-5 -0.250176,-0.111953 -0.250114,-0.250113 2.22e-4,-0.137959 0.112155,-0.249661 0.250114,-0.249598 z m 3.500045,0 h 2.500106 c 0.137959,-6.3e-5 0.249892,0.111639 0.250114,0.249598 6.2e-5,0.13816 -0.111954,0.250176 -0.250114,0.250113 h -2.500106 c -0.13816,6.3e-5 -0.250176,-0.111953 -0.250114,-0.250113 2.22e-4,-0.137959 0.112155,-0.249661 0.250114,-0.249598 z m 3.500045,0 h 2.500106 c 0.137757,2.22e-4 0.249376,0.111841 0.249597,0.249598 6.3e-5,0.137958 -0.111639,0.249891 -0.249597,0.250113 h -2.500106 c -0.13816,6.3e-5 -0.250176,-0.111953 -0.250114,-0.250113 2.22e-4,-0.137959 0.112155,-0.249661 0.250114,-0.249598 z m 3.500045,0 h 2.500105 c 0.137757,2.21e-4 0.249377,0.111841 0.249598,0.249598 6.3e-5,0.137958 -0.11164,0.249891 -0.249598,0.250113 h -2.500105 c -0.13816,6.3e-5 -0.250176,-0.111953 -0.250114,-0.250113 2.22e-4,-0.137959 0.112155,-0.249661 0.250114,-0.249598 z"
         sodipodi:nodetypes="cccccccccccccccccccccccccccccccccccccccccccccccccccccccccccccccc" /><path
         id="rect10"
         style="fill:#f1771d;fill-opacity:0.996078;stroke:none;stroke-width:0.454686;stroke-linecap:round;stroke-linejoin:round;stroke-dasharray:none;stroke-opacity:1"
         d="m 99.764453,37.941353 a 5.8672403,7.0949564 0 0 1 0.691947,3.316594 0.25,0.25 0 0 1 0.23875,-0.222726 h 2.5001 a 0.25,0.25 0 0 1 0.2496,0.249598 0.25,0.25 0 0 1 -0.2496,0.250113 h -2.5001 a 0.25,0.25 0 0 1 -0.2403,-0.226859 5.8672403,7.0949564 0 0 1 -0.70745,3.321244 h 23.64248 v -3.094385 h -1.69498 a 0.25,0.25 0 0 1 -0.25012,-0.250113 0.25,0.25 0 0 1 0.25012,-0.249598 h 1.69498 v -3.093868 z m 4.430737,3.093868 h 2.49959 a 0.25,0.25 0 0 1 0.25011,0.249598 0.25,0.25 0 0 1 -0.25011,0.250113 h -2.49959 a 0.25,0.25 0 0 1 -0.25011,-0.250113 0.25,0.25 0 0 1 0.25011,-0.249598 z m 3.50005,0 h 2.49958 a 0.25,0.25 0 0 1 0.25012,0.249598 0.25,0.25 0 0 1 -0.25012,0.250113 h -2.49958 a 0.25,0.25 0 0 1 -0.25012,-0.250113 0.25,0.25 0 0 1 0.25012,-0.249598 z m 3.49952,0 h 2.50011 a 0.25,0.25 0 0 1 0.25011,0.249598 0.25,0.25 0 0 1 -0.25011,0.250113 h -2.50011 a 0.25,0.25 0 0 1 -0.24959,-0.250113 0.25,0.25 0 0 1 0.24959,-0.249598 z m 3.50005,0 h 2.5001 a 0.25,0.25 0 0 1 0.25012,0.249598 0.25,0.25 0 0 1 -0.25012,0.250113 h -2.5001 a 0.25,0.25 0 0 1 -0.2496,-0.250113 0.25,0.25 0 0 1 0.2496,-0.249598 z m 3.50004,0 h 2.50011 a 0.25,0.25 0 0 1 0.25011,0.249598 0.25,0.25 0 0 1 -0.25011,0.250113 h -2.50011 a 0.25,0.25 0 0 1 -0.24959,-0.250113 0.25,0.25 0 0 1 0.24959,-0.249598 z" /><path
         id="path11"
         style="color:#000000;fill:#ffffff;fill-opacity:1;stroke-linecap:round;stroke-linejoin:round;-inkscape-stroke:none"
         d="m 52.777061,17.814871 c -0.1388,4.54e-4 -0.25121,0.112861 -0.25167,0.251664 v 16.123559 c 0.0838,-0.008 0.16768,-0.0136 0.25167,-0.0181 0.0841,5.1e-4 0.16816,0.003 0.25218,0.006 V 18.066535 c -4.6e-4,-0.139001 -0.11318,-0.25149 -0.25218,-0.251664 z m -0.25167,30.529403 v 17.38273 c 1.7e-4,0.139 0.11267,0.25172 0.25167,0.25218 0.1392,-1.8e-4 0.25201,-0.11298 0.25218,-0.25218 v -17.38273 c -0.084,0.008 -0.16802,0.0136 -0.25218,0.0181 -0.084,-0.005 -0.16789,-0.0106 -0.25167,-0.0181 z"
         sodipodi:nodetypes="cccccccccccccc" /><path
         id="path12"
         style="color:#000000;fill:#ffffff;stroke-linecap:round;stroke-linejoin:round;-inkscape-stroke:none"
         d="m 93.761651,17.814871 c -0.1388,4.54e-4 -0.25121,0.112861 -0.25167,0.251664 v 16.123559 c 0.0838,-0.008 0.16768,-0.0136 0.25167,-0.0181 0.0841,5.1e-4 0.16816,0.003 0.25218,0.006 V 18.066535 c -4.6e-4,-0.139001 -0.11318,-0.25149 -0.25218,-0.251664 z m -0.25167,30.529403 v 17.38273 c 1.7e-4,0.139 0.11267,0.25172 0.25167,0.25218 0.1392,-1.8e-4 0.25201,-0.11298 0.25218,-0.25218 v -17.38273 c -0.084,0.008 -0.16802,0.0136 -0.25218,0.0181 -0.084,-0.005 -0.16789,-0.0106 -0.25167,-0.0181 z"
         sodipodi:nodetypes="cccccccccccccc" /><path
         d="m 12.773933,43.964596 q 0.0089,0 0.04467,-0.01787 0.03574,-0.0268 0.06254,-0.08935 0.03574,-0.07148 0.03574,-0.196565 0,-0.09828 -0.0268,-0.241239 -0.04467,-0.18763 -0.05361,-0.223369 -0.04467,-0.142957 -0.08935,-0.187631 -0.03574,-0.05361 -0.125086,-0.06254 -0.08935,-0.01787 -0.348456,-0.01787 H 10.7368 q -0.268043,0 -0.37526,0.01787 -0.09828,0.0089 -0.142956,0.06254 -0.04467,0.05361 -0.07148,0.178696 l -0.04467,0.232304 q -0.03574,0.178695 -0.03574,0.303782 0,0.107217 0.01787,0.160826 0.01787,0.05361 0.03574,0.07148 0.02681,0.0089 0.03574,0.0089 H 8.2797436 q 0,0.0089 0.044674,-0.02681 0.053609,-0.03574 0.1250868,-0.151891 0.080413,-0.125086 0.1876301,-0.366325 0.348456,-0.813064 1.0006942,-2.358779 0.6522383,-1.545715 0.8041293,-1.920976 0.125087,-0.321652 0.125087,-0.455673 0,-0.05361 -0.01787,-0.06254 -0.0089,-0.01787 -0.01787,-0.01787 h 1.947779 q -0.0089,0 -0.01787,0.01787 -0.0089,0.0089 -0.0089,0.05361 0,0.134022 0.125087,0.464608 0.160826,0.428869 0.875607,2.144345 0.714782,1.715476 0.902412,2.13541 0.107217,0.241239 0.2055,0.366325 0.09828,0.116152 0.16976,0.151891 0.07148,0.03574 0.07148,0.02681 z m -0.759456,-2.019258 q 0.178696,0 0.241239,-0.01787 0.06254,-0.01787 0.06254,-0.07148 0,-0.03574 -0.04467,-0.151891 -0.276978,-0.652238 -0.518217,-1.36702 -0.241239,-0.714781 -0.241239,-0.75052 h -0.01787 l -0.76839,2.090736 q -0.05361,0.142956 -0.05361,0.16976 0,0.05361 0.06254,0.08041 0.06254,0.01787 0.232304,0.01787 z"
         id="text12"
         style="font-weight:bold;font-size:8.93477px;font-family:'red rose';-inkscape-font-specification:'red rose Bold';text-align:center;text-anchor:middle;stroke-width:1.40705;stroke-linecap:round;stroke-linejoin:round;fill:#ffffff"
         aria-label="A" /><path
         d="m 54.147172,41.016587 q 1.170455,0.268043 1.170455,1.393824 0,0.679043 -0.419934,1.116846 -0.419934,0.437804 -1.465302,0.437804 h -3.698995 q 0,0.01787 0.05361,-0.01787 0.05361,-0.04467 0.08935,-0.160826 0.04467,-0.125087 0.04467,-0.357391 v -4.288689 q 0,-0.232304 -0.04467,-0.348456 -0.03574,-0.116152 -0.08935,-0.160826 -0.05361,-0.04467 -0.05361,-0.0268 H 53.075 q 0.99176,0 1.393824,0.339522 0.411,0.339521 0.411,0.982824 0,0.446739 -0.214435,0.705847 -0.214434,0.259108 -0.518217,0.366326 z m -2.4928,-1.411693 q -0.196565,0 -0.259109,0.01787 -0.06254,0.0089 -0.08041,0.05361 -0.01787,0.04467 -0.01787,0.196565 v 0.634368 q 0,0.142957 0.01787,0.196565 0.01787,0.04467 0.08041,0.06254 0.07148,0.0089 0.268044,0.0089 h 1.054302 q 0.419935,0 0.607565,-0.142956 0.18763,-0.142956 0.18763,-0.446738 0,-0.303783 -0.178696,-0.437804 -0.178695,-0.142956 -0.607564,-0.142956 z m 1.340215,3.368408 q 0.509282,0 0.723717,-0.142957 0.223369,-0.151891 0.223369,-0.482477 0,-0.661173 -1.036433,-0.661173 h -1.241933 q -0.196565,0 -0.268044,0.01787 -0.06254,0.0089 -0.08041,0.06254 -0.01787,0.04467 -0.01787,0.196565 v 0.741586 q 0,0.142956 0.01787,0.196565 0.01787,0.04467 0.08041,0.06254 0.06254,0.0089 0.259109,0.0089 z"
         id="text13"
         style="font-weight:bold;font-size:8.93477px;font-family:'red rose';-inkscape-font-specification:'red rose Bold';text-align:center;text-anchor:middle;stroke-width:1.40705;stroke-linecap:round;stroke-linejoin:round;fill:#ffffff"
         aria-label="B" /><path
         d="m 96.172544,42.705259 0.08935,0.902411 q 0,0.02681 -0.241239,0.142957 -0.232304,0.107217 -0.759455,0.205499 -0.518217,0.09828 -1.34915,0.09828 -1.55465,0 -2.314106,-0.670108 -0.75052,-0.670108 -0.75052,-2.099671 0,-1.295541 0.75052,-2.028192 0.750521,-0.741586 2.314106,-0.741586 0.687977,0 1.170455,0.06254 0.482477,0.05361 0.741585,0.125087 0.259109,0.07148 0.259109,0.08041 v 0.268043 l 0.178695,0.982825 q 0,-0.01787 -0.312717,-0.151892 -0.303782,-0.142956 -0.821999,-0.259108 -0.518216,-0.125087 -1.197259,-0.125087 -0.911346,0 -1.322346,0.437804 -0.402064,0.437804 -0.402064,1.34915 0,0.625434 0.178695,1.009629 0.178695,0.384195 0.607564,0.58076 0.437804,0.18763 1.19726,0.18763 0.616499,0 1.054302,-0.134021 0.446739,-0.142956 0.687978,-0.303782 0.241238,-0.160826 0.241238,-0.18763 z"
         id="text14"
         style="font-weight:bold;font-size:8.93477px;font-family:'red rose';-inkscape-font-specification:'red rose Bold';text-align:center;text-anchor:middle;stroke-width:1.40705;stroke-linecap:round;stroke-linejoin:round;fill:#ffffff"
         aria-label="C" /><path
         style="font-weight:bold;font-size:6.70582px;font-family:'red rose';-inkscape-font-specification:'red rose Bold';text-align:center;text-anchor:middle;stroke-width:1.05604;stroke-linecap:round;stroke-linejoin:round;fill:#ffffff"
         d="m 3.383758,75.90892 q 0,0.16094 0.1207048,0.261527 0.1207047,0.09388 0.3889375,0.154234 0.2682328,0.05365 0.7778751,0.113999 0.7175228,0.08047 1.1131662,0.241409 0.3956434,0.154234 0.5498772,0.40235 0.1609397,0.248115 0.1609397,0.616935 0,0.623641 -0.4694074,0.918697 -0.4694074,0.295057 -1.4886921,0.295057 -0.5968179,0 -1.0662253,-0.04694 -0.4627016,-0.04023 -0.7510519,-0.09388 -0.2883503,-0.05365 -0.2883503,-0.06035 v -0.20118 L 2.2974151,77.659139 q 0,0.02682 0.2481154,0.16094 0.2548211,0.12741 0.7510518,0.241409 0.5029365,0.113999 1.2539884,0.113999 0.5297598,0 0.7242286,-0.100587 0.2011746,-0.100587 0.2011746,-0.315174 0,-0.160939 -0.1072932,-0.248115 Q 5.2613876,77.41773 4.9998606,77.364083 4.7450395,77.303731 4.1951622,77.229967 3.5446977,77.142791 3.1490543,77.001969 2.7601167,76.861147 2.5589421,76.606325 2.3644733,76.344798 2.3644733,75.922332 q 0,-0.549877 0.4358783,-0.858345 0.4358784,-0.308468 1.3948106,-0.308468 0.5699947,0 0.9857556,0.04694 0.4157608,0.04024 0.6504645,0.09388 0.2414095,0.05365 0.2414095,0.06035 v 0.201174 l 0.2011746,0.73764 q 0,-0.01341 -0.295056,-0.113998 -0.2950561,-0.107294 -0.7644635,-0.194469 -0.4694074,-0.09388 -1.0528138,-0.09388 -0.4291725,0 -0.6035238,0.107293 Q 3.383758,75.70104 3.383758,75.90892 Z m 5.0695959,0.469408 v 1.321046 q 0,0.321879 0.046941,0.429173 0.053647,0.107293 0.2212921,0.107293 0.1408222,0 0.3017619,-0.107293 0.1676455,-0.113999 0.2816445,-0.234704 0.1207047,-0.120705 0.1542338,-0.16094 v 0.207881 l 0.067058,0.650464 q 0,0.01341 -0.147528,0.100587 -0.1475281,0.08047 -0.4023492,0.154234 -0.2548212,0.06706 -0.596818,0.06706 -0.4627016,0 -0.670582,-0.194469 Q 7.5011275,78.517484 7.5011275,78.068194 V 76.378328 H 6.8976036 v -0.670582 q 0.3151736,0 0.4828191,-0.07376 0.1743513,-0.08047 0.2481153,-0.268233 0.073764,-0.194469 0.073764,-0.549878 H 8.4533538 V 75.70775 H 9.600049 q -0.013412,0.03353 -0.046941,0.147528 -0.026823,0.113999 -0.060352,0.261527 -0.026823,0.147528 -0.026823,0.261527 z m 3.1986801,-0.737641 q 0.925403,0 1.2674,0.455996 0.341997,0.44929 0.341997,1.153401 v 0.315174 q 0,-0.01341 -0.154234,-0.04023 -0.154234,-0.02682 -0.650465,-0.02682 h -1.55575 q 0,0.375526 0.227998,0.556584 0.227998,0.181057 0.730934,0.181057 0.348703,0 0.623642,-0.06706 0.281644,-0.06706 0.455995,-0.147529 0.181058,-0.08047 0.181058,-0.08718 v 0.201174 l 0.06706,0.509643 q 0,0.01341 -0.167646,0.08047 -0.160939,0.06706 -0.482819,0.12741 -0.315173,0.06035 -0.777875,0.06035 -1.012579,0 -1.421634,-0.409055 -0.4023489,-0.409056 -0.4023489,-1.22046 0,-0.777875 0.4291729,-1.207047 0.435878,-0.435879 1.287517,-0.435879 z m 0.489525,1.280812 h 0.167645 q 0,-0.254821 -0.160939,-0.429173 -0.154234,-0.181057 -0.496231,-0.181057 -0.341997,0 -0.516348,0.147528 -0.174351,0.140823 -0.174351,0.328586 0,0.07376 0.04023,0.107293 0.04694,0.02682 0.147529,0.02682 z m 3.62785,-1.280812 q 0.871756,0 1.233871,0.435879 0.362114,0.435878 0.362114,1.207047 0,0.77117 -0.355408,1.200342 -0.355409,0.429173 -1.240577,0.429173 -0.268233,0 -0.489525,-0.06706 -0.221292,-0.06035 -0.355409,-0.181057 l -0.01341,0.0067 0.01341,0.134116 v 1.126578 q 0,0.174352 0.02682,0.261527 0.03353,0.09388 0.06706,0.120705 0.04024,0.03353 0.04024,0.02012 h -1.220459 q 0,0.01341 0.03353,-0.02012 0.04023,-0.02682 0.06706,-0.120705 0.03353,-0.08718 0.03353,-0.261527 v -3.822317 q 0,-0.174352 -0.03353,-0.261527 -0.02682,-0.08718 -0.06706,-0.120705 -0.03353,-0.03353 -0.03353,-0.02012 h 1.086342 v 0.05365 l -0.01341,0.127411 0.01341,0.0067 q 0.107294,-0.09388 0.348703,-0.174351 0.248115,-0.08047 0.496231,-0.08047 z m -0.134117,2.595153 q 0.288351,0 0.455996,-0.08718 0.167646,-0.08718 0.24141,-0.28835 0.08047,-0.207881 0.08047,-0.576701 0,-0.543171 -0.181058,-0.757757 -0.174351,-0.214587 -0.596818,-0.214587 -0.710817,0 -0.710817,0.97905 0,0.502937 0.181058,0.724229 0.181057,0.221292 0.529759,0.221292 z m 5.51218,0.20788 q 0,0.174351 0.02682,0.268233 0.03353,0.08718 0.07376,0.120705 0.04023,0.02682 0.04023,0.01341 h -1.307635 q 0,0.01341 0.03353,-0.01341 0.04023,-0.03353 0.06706,-0.120705 0.03353,-0.09388 0.03353,-0.268233 v -2.803033 l -0.603524,0.134117 v -0.81811 q 0.335291,0 0.697405,-0.04023 0.362114,-0.04694 0.616936,-0.09388 0.254821,-0.05365 0.321879,-0.06706 z"
         id="text15"
         aria-label="Step 1" /><path
         style="font-weight:bold;font-size:6.70582px;font-family:'red rose';-inkscape-font-specification:'red rose Bold';text-align:center;text-anchor:middle;stroke-width:1.05604;stroke-linecap:round;stroke-linejoin:round;fill:#ffffff"
         d="m 43.341774,7.2805909 q 0,0.1609396 0.120704,0.2615269 0.120705,0.093882 0.388938,0.1542339 0.268233,0.053647 0.777875,0.1139989 0.717523,0.08047 1.113166,0.2414096 0.395644,0.1542338 0.549878,0.4023492 0.160939,0.2481153 0.160939,0.6169354 0,0.6236413 -0.469407,0.9186974 -0.469408,0.2950558 -1.488692,0.2950558 -0.596818,0 -1.066226,-0.04694 -0.462701,-0.04023 -0.751051,-0.09388 -0.288351,-0.05365 -0.288351,-0.06035 V 9.8824491 L 42.255431,9.0308099 q 0,0.026823 0.248115,0.1609397 0.254821,0.1274106 0.751052,0.2414095 0.502937,0.113999 1.253988,0.113999 0.52976,0 0.724229,-0.1005874 0.201175,-0.1005873 0.201175,-0.3151735 0,-0.1609397 -0.107294,-0.2481153 Q 45.219403,8.7894004 44.957876,8.7357538 44.703055,8.6754014 44.153178,8.6016374 43.502713,8.5144618 43.10707,8.3736395 42.718132,8.2328173 42.516958,7.9779962 42.322489,7.7164692 42.322489,7.2940025 q 0,-0.5498772 0.435878,-0.858345 0.435879,-0.3084677 1.394811,-0.3084677 0.569995,0 0.985755,0.046941 0.415761,0.040235 0.650465,0.093881 0.24141,0.053647 0.24141,0.060352 V 6.529539 l 0.201174,0.7376402 q 0,-0.013412 -0.295056,-0.1139989 Q 45.64187,7.0458872 45.172463,6.9587115 44.703055,6.86483 44.119649,6.86483 q -0.429173,0 -0.603524,0.1072931 -0.174351,0.1005873 -0.174351,0.3084678 z m 5.069596,0.4694074 v 1.3210465 q 0,0.3218794 0.04694,0.4291725 0.05365,0.1072931 0.221292,0.1072931 0.140823,0 0.301762,-0.1072931 0.167646,-0.1139989 0.281645,-0.2347037 0.120705,-0.1207048 0.154234,-0.1609397 v 0.2078804 l 0.06706,0.6504646 q 0,0.013412 -0.147528,0.1005871 -0.147528,0.08047 -0.402349,0.154234 -0.254822,0.06706 -0.596818,0.06706 -0.462702,0 -0.670582,-0.194469 Q 47.459143,9.8891549 47.459143,9.4398649 V 7.7499983 h -0.603524 v -0.670582 q 0.315174,0 0.482819,-0.073764 0.174352,-0.08047 0.248116,-0.2682328 0.07376,-0.1944687 0.07376,-0.5498772 h 0.751052 v 0.8918741 h 1.146695 q -0.01341,0.033529 -0.04694,0.147528 -0.02682,0.1139989 -0.06035,0.261527 -0.02682,0.147528 -0.02682,0.261527 z m 3.19868,-0.7376402 q 0.925403,0 1.2674,0.4559957 0.341997,0.44929 0.341997,1.1534011 v 0.3151735 q 0,-0.013412 -0.154234,-0.040235 -0.154234,-0.026823 -0.650465,-0.026823 h -1.55575 q 0,0.3755259 0.227998,0.5565831 0.227998,0.1810571 0.730934,0.1810571 0.348703,0 0.623641,-0.067058 0.281645,-0.067058 0.455996,-0.147528 0.181057,-0.08047 0.181057,-0.087176 v 0.2011746 l 0.06706,0.5096418 q 0,0.01341 -0.167646,0.08047 -0.16094,0.06706 -0.482819,0.127411 -0.315174,0.06035 -0.777875,0.06035 -1.012579,0 -1.421634,-0.4090547 -0.402349,-0.409055 -0.402349,-1.2204592 0,-0.7778752 0.429172,-1.2070476 0.435879,-0.4358783 1.287518,-0.4358783 z m 0.489525,1.2808116 h 0.167645 q 0,-0.2548212 -0.16094,-0.4291725 -0.154233,-0.1810571 -0.49623,-0.1810571 -0.341997,0 -0.516348,0.147528 -0.174352,0.1408222 -0.174352,0.3285852 0,0.073764 0.04023,0.1072931 0.04694,0.026823 0.147528,0.026823 z m 3.62785,-1.2808116 q 0.871756,0 1.23387,0.4358783 0.362115,0.4358783 0.362115,1.2070476 0,0.7711693 -0.355409,1.2003418 -0.355408,0.4291722 -1.240576,0.4291722 -0.268233,0 -0.489525,-0.06706 -0.221292,-0.06035 -0.355409,-0.181057 l -0.01341,0.0067 0.01341,0.134116 v 1.126578 q 0,0.174351 0.02682,0.261527 0.03353,0.09388 0.06706,0.120705 0.04023,0.03353 0.04023,0.02012 h -1.22046 q 0,0.01341 0.03353,-0.02012 0.04024,-0.02682 0.06706,-0.120705 0.03353,-0.08718 0.03353,-0.261527 V 7.4817655 q 0,-0.1743514 -0.03353,-0.261527 -0.02682,-0.087176 -0.06706,-0.1207048 -0.03353,-0.033529 -0.03353,-0.020117 h 1.086343 v 0.053647 l -0.01341,0.1274106 0.01341,0.00671 q 0.107293,-0.093882 0.348703,-0.1743513 0.248115,-0.08047 0.496231,-0.08047 z m -0.134117,2.5951523 q 0.28835,0 0.455996,-0.087176 0.167645,-0.087176 0.241409,-0.2883503 0.08047,-0.2078804 0.08047,-0.5767005 0,-0.5431714 -0.181057,-0.7577577 -0.174351,-0.2145862 -0.596818,-0.2145862 -0.710817,0 -0.710817,0.9790497 0,0.5029365 0.181057,0.7242286 0.181057,0.221292 0.52976,0.2212924 z M 61.789481,9.473394 q 0.328585,0 0.549878,-0.040235 0.227997,-0.046941 0.341996,-0.1005873 0.113999,-0.053647 0.113999,-0.060352 L 62.661238,10.00986 v 0.20788 h -3.259029 v -0.07376 q 0,-0.107293 0.154234,-0.4291724 0.16094,-0.3285852 0.683994,-0.8717567 0.120705,-0.1274105 0.28835,-0.2816444 0.167646,-0.1609397 0.248115,-0.2347037 0.415761,-0.3755259 0.603524,-0.6102296 0.194469,-0.2414096 0.194469,-0.5096424 0,-0.1743513 -0.113999,-0.2548211 -0.107293,-0.087176 -0.348703,-0.087176 -0.348702,0 -0.670582,0.1408222 -0.321879,0.1341164 -0.549877,0.3017619 -0.221292,0.1676455 -0.221292,0.1810572 V 7.2872967 L 59.536326,6.529539 q 0,-0.020117 0.181057,-0.1207047 0.181057,-0.1005873 0.52976,-0.187763 0.348702,-0.093882 0.851639,-0.093882 0.751052,0 1.086343,0.2816445 0.341996,0.2749386 0.341996,0.6974052 0,0.3419969 -0.113998,0.6169355 -0.113999,0.2749386 -0.328586,0.523054 -0.214586,0.2481153 -0.583406,0.5699947 -0.281644,0.2414095 -0.496231,0.3889375 -0.214586,0.1408222 -0.348702,0.2011746 -0.127411,0.053647 -0.127411,0.046941 v 0.020117 z"
         id="text15-4"
         aria-label="Step 2" /><path
         style="font-weight:bold;font-size:6.70582px;font-family:'red rose';-inkscape-font-specification:'red rose Bold';text-align:center;text-anchor:middle;stroke-width:1.05604;stroke-linecap:round;stroke-linejoin:round;fill:#ffffff"
         d="m 84.296483,75.90892 q 0,0.16094 0.120705,0.261527 0.120705,0.09388 0.388937,0.154234 0.268233,0.05365 0.777876,0.113999 0.717522,0.08047 1.113166,0.241409 0.395643,0.154234 0.549877,0.40235 0.16094,0.248115 0.16094,0.616935 0,0.623641 -0.469408,0.918697 -0.469407,0.295057 -1.488692,0.295057 -0.596818,0 -1.066225,-0.04694 -0.462702,-0.04023 -0.751052,-0.09388 -0.28835,-0.05365 -0.28835,-0.06035 v -0.20118 L 83.21014,77.659139 q 0,0.02682 0.248116,0.16094 0.254821,0.12741 0.751051,0.241409 0.502937,0.113999 1.253989,0.113999 0.52976,0 0.724228,-0.100587 0.201175,-0.100587 0.201175,-0.315174 0,-0.160939 -0.107293,-0.248115 -0.107293,-0.09388 -0.36882,-0.147528 -0.254821,-0.06035 -0.804699,-0.134116 -0.650464,-0.08718 -1.046108,-0.227998 -0.388937,-0.140822 -0.590112,-0.395644 -0.194469,-0.261527 -0.194469,-0.683993 0,-0.549877 0.435879,-0.858345 0.435878,-0.308468 1.39481,-0.308468 0.569995,0 0.985756,0.04694 0.415761,0.04024 0.650464,0.09388 0.24141,0.05365 0.24141,0.06035 v 0.201174 l 0.201175,0.73764 q 0,-0.01341 -0.295057,-0.113998 -0.295056,-0.107294 -0.764463,-0.194469 -0.469407,-0.09388 -1.052814,-0.09388 -0.429172,0 -0.603524,0.107293 -0.174351,0.100588 -0.174351,0.308468 z m 5.069596,0.469408 v 1.321046 q 0,0.321879 0.04694,0.429173 0.05365,0.107293 0.221292,0.107293 0.140822,0 0.301762,-0.107293 0.167645,-0.113999 0.281644,-0.234704 0.120705,-0.120705 0.154234,-0.16094 v 0.207881 l 0.06706,0.650464 q 0,0.01341 -0.147528,0.100587 -0.147528,0.08047 -0.402349,0.154234 -0.254821,0.06706 -0.596818,0.06706 -0.462702,0 -0.670582,-0.194469 -0.20788,-0.201175 -0.20788,-0.650465 V 76.378329 H 87.81033 v -0.670582 q 0.315173,0 0.482819,-0.07376 0.174351,-0.08047 0.248115,-0.268233 0.07376,-0.194469 0.07376,-0.549878 h 0.751052 v 0.891875 h 1.146695 q -0.01341,0.03353 -0.04694,0.147528 -0.02682,0.113999 -0.06035,0.261527 -0.02682,0.147528 -0.02682,0.261527 z m 3.19868,-0.737641 q 0.925403,0 1.2674,0.455996 0.341997,0.44929 0.341997,1.153401 v 0.315174 q 0,-0.01341 -0.154234,-0.04023 -0.154234,-0.02682 -0.650464,-0.02682 h -1.555751 q 0,0.375526 0.227998,0.556584 0.227998,0.181057 0.730935,0.181057 0.348702,0 0.623641,-0.06706 0.281644,-0.06706 0.455996,-0.147529 0.181057,-0.08047 0.181057,-0.08718 v 0.201174 l 0.06706,0.509643 q 0,0.01341 -0.167646,0.08047 -0.160939,0.06706 -0.482819,0.12741 -0.315173,0.06035 -0.777875,0.06035 -1.012579,0 -1.421634,-0.409055 -0.402349,-0.409056 -0.402349,-1.22046 0,-0.777875 0.429173,-1.207047 0.435878,-0.435879 1.287517,-0.435879 z m 0.489525,1.280812 h 0.167646 q 0,-0.254821 -0.16094,-0.429173 -0.154234,-0.181057 -0.496231,-0.181057 -0.341997,0 -0.516348,0.147528 -0.174351,0.140823 -0.174351,0.328586 0,0.07376 0.04023,0.107293 0.04694,0.02682 0.147528,0.02682 z m 3.62785,-1.280812 q 0.871757,0 1.233871,0.435879 0.362114,0.435878 0.362114,1.207047 0,0.77117 -0.355408,1.200342 -0.355409,0.429173 -1.240577,0.429173 -0.268233,0 -0.489525,-0.06706 -0.221292,-0.06035 -0.355408,-0.181057 l -0.01341,0.0067 0.01341,0.134116 v 1.126578 q 0,0.174352 0.02682,0.261527 0.03353,0.09388 0.06706,0.120705 0.04023,0.03353 0.04023,0.02012 h -1.220459 q 0,0.01341 0.03353,-0.02012 0.04024,-0.02682 0.06706,-0.120705 0.03353,-0.08718 0.03353,-0.261527 v -3.822317 q 0,-0.174352 -0.03353,-0.261527 -0.02682,-0.08718 -0.06706,-0.120705 -0.03353,-0.03353 -0.03353,-0.02012 h 1.086343 v 0.05365 l -0.01341,0.127411 0.01341,0.0067 q 0.107293,-0.09388 0.348702,-0.174351 0.248116,-0.08047 0.496231,-0.08047 z m -0.134116,2.595153 q 0.28835,0 0.455995,-0.08718 0.167646,-0.08718 0.24141,-0.28835 0.08047,-0.207881 0.08047,-0.576701 0,-0.543171 -0.181057,-0.757757 -0.174352,-0.214587 -0.596818,-0.214587 -0.710817,0 -0.710817,0.97905 0,0.502937 0.181057,0.724229 0.181057,0.221292 0.52976,0.221292 z m 6.343702,-1.481987 q 0.40905,0.07376 0.63035,0.328586 0.22799,0.254821 0.22799,0.65717 0,0.543171 -0.39564,0.858345 -0.39564,0.315174 -1.22716,0.315174 -0.55659,0 -0.93882,-0.06035 -0.37553,-0.06035 -0.56999,-0.12741 -0.19447,-0.06706 -0.19447,-0.08047 l 0.14082,-0.784581 v -0.201175 q 0,0.02012 0.16764,0.154234 0.17436,0.134116 0.49624,0.248115 0.32187,0.113999 0.77787,0.113999 0.38223,0 0.54988,-0.120704 0.17435,-0.120705 0.17435,-0.362115 0,-0.254821 -0.20118,-0.36882 -0.20117,-0.120705 -0.66387,-0.120705 h -0.63705 v -0.704111 h 0.63705 q 0.32188,0 0.45599,-0.140822 0.14083,-0.147528 0.14083,-0.469407 0,-0.201175 -0.0939,-0.295056 -0.0939,-0.100588 -0.30176,-0.100588 -0.39564,0 -0.71752,0.140823 -0.32188,0.134116 -0.52305,0.301761 -0.20118,0.16094 -0.20118,0.181058 v -0.201175 l -0.13411,-0.757758 q 0,-0.02012 0.18105,-0.120704 0.18106,-0.100588 0.52976,-0.187763 0.3487,-0.09388 0.85164,-0.09388 0.79799,0 1.11317,0.261527 0.31517,0.254821 0.31517,0.751052 0,0.341997 -0.16094,0.596818 -0.16094,0.254821 -0.42917,0.375526 z"
         id="text16"
         aria-label="Step 3" /><circle
         style="fill:#ffffff;stroke:none;stroke-width:0.499999;stroke-linecap:round;stroke-linejoin:round;stroke-dasharray:none;stroke-opacity:1"
         id="path16"
         cx="93.761902"
         cy="18.080227"
         r="0.76447874" /><circle
         style="fill:#ffffff;stroke:none;stroke-width:0.499999;stroke-linecap:round;stroke-linejoin:round;stroke-dasharray:none;stroke-opacity:1"
         id="circle16"
         cx="52.777309"
         cy="66.084686"
         r="0.76447874" /><circle
         style="fill:#ffffff;stroke:none;stroke-width:0.499999;stroke-linecap:round;stroke-linejoin:round;stroke-dasharray:none;stroke-opacity:1"
         id="circle17"
         cx="11.540935"
         cy="17.935116"
         r="0.76447874" /><path
         d="m 13.722562,9.221787 c 0,0.04088 0,2.318867 0,2.318867 0,0.232738 -0.188121,0.420859 -0.420843,0.420859 -0.232737,0 -0.420842,-0.188121 -0.420842,-0.420859 v -1.523881 l -1.487282,0.568976 c -0.197379,0.07571 -0.409073,0.113251 -0.620751,0.113251 -0.21295,0 -0.425487,-0.03786 -0.623693,-0.114046 L 8.320143,9.882144 C 8.017546,9.765552 7.829854,9.512646 7.830268,9.222248 c 0,-0.290795 0.188964,-0.543303 0.491975,-0.659036 l 1.829421,-0.697768 v 0 c 0.392228,-0.149835 0.842959,-0.150312 1.235616,-0.0013 l 1.841208,0.69861 c 0.298811,0.112775 0.492818,0.371614 0.493231,0.658623 z M 15.826809,4.807088 V 5.648789 H 5.726451 V 4.807088 c 0,-1.160285 0.943962,-2.104247 2.104246,-2.104247 h 5.891865 c 1.160285,0 2.104247,0.943962 2.104247,2.104247 z M 8.25154,4.175807 c 0,-0.348454 -0.28281,-0.631264 -0.63128,-0.631264 -0.348454,0 -0.631264,0.28281 -0.631264,0.631264 0,0.348471 0.28281,0.631281 0.631264,0.631281 0.34847,0 0.63128,-0.28281 0.63128,-0.631281 z m 1.683388,0 c 0,-0.348454 -0.28281,-0.631264 -0.631264,-0.631264 -0.348471,0 -0.631281,0.28281 -0.631281,0.631264 0,0.348471 0.28281,0.631281 0.631281,0.631281 0.348454,0 0.631264,-0.28281 0.631264,-0.631281 z m 0.835801,7.364847 c -0.320253,0 -0.631265,-0.05678 -0.925432,-0.168334 L 9.093242,11.085295 V 11.6223 c 0,0.409916 0.23988,0.785299 0.611907,0.956592 0.323625,0.14904 0.683882,0.224307 1.071481,0.224307 0.387599,0 0.74784,-0.07571 1.072324,-0.224307 0.371184,-0.171293 0.611064,-0.547106 0.611064,-0.956592 v -0.540361 l -0.767198,0.291224 c -0.291224,0.111184 -0.601822,0.167491 -0.922091,0.167491 z M 5.726451,9.857267 c 0,1.160284 0.943962,2.104246 2.104246,2.104246 H 8.286041 C 8.265361,11.85033 8.251521,11.737619 8.251521,11.621887 V 10.757041 L 8.018369,10.667331 C 7.392147,10.426609 6.988133,9.858889 6.988976,9.220451 6.989819,8.582029 7.395519,8.015566 8.022584,7.776529 L 9.852006,7.078761 c 0.582878,-0.221794 1.251188,-0.222621 1.834479,-0.0016 l 1.841622,0.699024 c 0.570678,0.215066 1.045395,0.818129 1.045395,1.443938 0,0.04454 -0.0095,2.32014 -0.0095,2.32014 0,0.08748 -0.0095,0.173392 -0.02656,0.256294 0.75627,-0.319426 1.28906,-1.068109 1.28906,-1.939698 V 6.490094 H 5.726101 v 3.366775 z"
         id="path1-8"
         style="fill:#f6bc1a;fill-opacity:1;stroke-width:0.420848" /><circle
         style="fill:none;stroke:#ffffff;stroke-width:0.499999;stroke-linecap:round;stroke-linejoin:round;stroke-dasharray:none;stroke-opacity:1"
         id="circle4"
         cx="52.525394"
         cy="41.285053"
         r="7.0949564" /><circle
         style="fill:none;stroke:#ffffff;stroke-width:0.499999;stroke-linecap:round;stroke-linejoin:round;stroke-dasharray:none;stroke-opacity:1"
         id="circle5"
         cx="93.509979"
         cy="41.285053"
         r="7.0949564" /><rect
         style="fill:#5bb6f5;fill-opacity:1;stroke:none;stroke-width:0.499999;stroke-linecap:round;stroke-linejoin:round;stroke-dasharray:none;stroke-opacity:1"
         id="rect6"
         width="3.4879344"
         height="3.2490349"
         x="51.035076"
         y="16.630169" /><path
         style="fill:#5bb6f5;fill-opacity:1;stroke-width:0.551673"
         d="m 51.784611,83.582514 c -0.14502,-0.0767 -0.60625,-0.22284 -0.93585,-0.29653 -0.56972,-0.12737 -1.44143,-0.22098 -2.05768,-0.22098 -0.19666,0 -0.26336,-0.009 -0.29474,-0.0405 -0.0361,-0.0361 -0.0405,-0.23546 -0.0405,-1.80596 v -1.7654 l 0.0634,-0.0416 c 0.057,-0.0373 0.12762,-0.0387 0.69626,-0.0134 0.94158,0.0419 1.20396,0.0797 2.11145,0.30442 l 0.58713,0.14537 v 1.89243 c 0,1.04083 -0.009,1.89191 -0.0194,1.89128 -0.0106,-5.6e-4 -0.0602,-0.0227 -0.11008,-0.0491 z m 0.57445,-1.83874 0.007,-1.889 0.42583,-0.1112 c 0.91466,-0.23885 1.34214,-0.30346 2.28565,-0.34543 0.56864,-0.0253 0.63927,-0.0239 0.69626,0.0134 l 0.0634,0.0416 v 1.7654 c 0,1.5705 -0.005,1.76988 -0.0405,1.80596 -0.0314,0.0314 -0.0981,0.0405 -0.29474,0.0405 -0.61625,0 -1.48796,0.0936 -2.05768,0.22097 -0.32712,0.0731 -0.78452,0.21778 -0.94085,0.29753 -0.0531,0.0271 -0.10872,0.0493 -0.12357,0.0493 -0.0186,0 -0.025,-0.58689 -0.0204,-1.889 z m -1.19345,-2.51477 c -0.50936,-0.12979 -1.23691,-0.22529 -1.89688,-0.24899 l -0.15484,-0.006 -0.007,-0.35776 c -0.005,-0.25917 0.002,-0.36858 0.0254,-0.39701 0.0265,-0.032 0.0734,-0.0363 0.25237,-0.0233 0.39968,0.0289 0.82994,0.18754 1.20002,0.44248 0.24379,0.16794 0.87962,0.66507 0.83832,0.65545 -0.007,-0.001 -0.12231,-0.0309 -0.25716,-0.0653 z m 1.73141,0.0323 c 0.0993,-0.0901 0.65365,-0.51292 0.82734,-0.63099 0.37684,-0.25618 0.7827,-0.40495 1.18383,-0.43395 0.17903,-0.0129 0.22585,-0.009 0.25237,0.0233 0.0236,0.0284 0.0306,0.13784 0.0254,0.39701 l -0.007,0.35776 -0.37515,0.0179 c -0.61376,0.0293 -1.26549,0.12506 -1.79885,0.26434 -0.11016,0.0288 -0.13555,0.0298 -0.10771,0.005 z m -1.02614,-0.24464 c -0.12188,-0.0219 -0.23499,-0.0951 -0.73462,-0.47581 -0.19358,-0.1475 -0.44022,-0.31931 -0.5481,-0.38181 -0.10788,-0.0625 -0.19629,-0.12204 -0.19647,-0.13232 -6e-4,-0.0367 0.37783,-0.28408 0.59018,-0.38573 0.58906,-0.28195 1.37234,-0.3301 1.9984,-0.12284 0.23899,0.0791 0.55045,0.24029 0.75175,0.38901 l 0.17918,0.13239 -0.0972,0.0545 c -0.20971,0.11765 -0.4822,0.30596 -0.8031,0.55499 -0.43732,0.33938 -0.49284,0.36581 -0.79304,0.37754 -0.1316,0.005 -0.28773,6.6e-4 -0.34696,-0.01 z m 3.70285,-1.47148 c -0.0757,-0.0676 -0.0842,-0.0906 -0.0935,-0.25163 -0.0102,-0.17587 -0.011,-0.17758 -0.10664,-0.22258 -0.11964,-0.0563 -0.15609,-0.13332 -0.15609,-0.32973 0,-0.14966 -0.002,-0.15415 -0.087,-0.18962 -0.11337,-0.0474 -0.17113,-0.13309 -0.17113,-0.25399 v -0.0975 h 0.95337 c 0.59674,0 0.95923,0.01 0.96904,0.0254 0.0555,0.0898 -0.0831,0.32397 -0.20172,0.34086 -0.0504,0.007 -0.0569,0.0258 -0.0638,0.185 -0.009,0.2063 -0.0511,0.28568 -0.17542,0.33064 -0.0864,0.0312 -0.0879,0.0344 -0.0879,0.18314 0,0.29351 -0.0727,0.35307 -0.43187,0.35385 -0.25499,5.5e-4 -0.267,-0.002 -0.34739,-0.0738 z m -3.66971,-0.44345 c -0.0836,-0.0127 -0.24775,-0.0695 -0.36481,-0.12618 -0.28973,-0.14023 -0.48813,-0.33712 -0.62909,-0.62428 -0.19979,-0.407 -0.20041,-0.79582 -0.002,-1.20118 0.41283,-0.8431 1.52538,-1.02874 2.18887,-0.36525 0.264,0.264 0.39641,0.58589 0.39641,0.96367 0,0.84732 -0.74528,1.48182 -1.58946,1.35322 z m -4.05899,-0.77682 c -0.0742,-0.1835 -0.0759,-0.18529 -0.21592,-0.23181 -0.0776,-0.0258 -0.20747,-0.078 -0.28856,-0.11615 -0.16158,-0.0759 -0.1375,-0.0787 -0.43529,0.0509 l -0.0924,0.0402 -0.2159,-0.21702 -0.215888,-0.21703 0.0835,-0.19001 0.0835,-0.19002 -0.0654,-0.12698 c -0.0359,-0.0698 -0.0917,-0.20118 -0.123898,-0.29186 l -0.0585,-0.16489 -0.18038,-0.0685 -0.18039,-0.0685 -0.007,-0.31308 -0.007,-0.31309 0.19109,-0.0711 0.19108,-0.0711 0.0451,-0.14376 c 0.0248,-0.0791 0.0788,-0.21082 0.120048,-0.29276 l 0.075,-0.14899 -0.0807,-0.18377 -0.0807,-0.18377 0.219988,-0.21998 0.21998,-0.21998 0.18088,0.0809 0.18088,0.0809 0.21463,-0.0997 c 0.11805,-0.0548 0.24984,-0.10706 0.29286,-0.11608 0.0693,-0.0145 0.0866,-0.0385 0.15181,-0.20915 l 0.0736,-0.19275 0.31273,2.8e-4 0.31273,2.8e-4 0.0706,0.18845 0.0706,0.18845 0.13958,0.044 c 0.0768,0.0242 0.20758,0.0785 0.29069,0.12068 l 0.15113,0.0767 0.18795,-0.0822 0.18796,-0.0822 0.21702,0.2159 0.21703,0.2159 -0.0402,0.0924 c -0.13124,0.30136 -0.12926,0.26551 -0.0268,0.48613 0.051,0.1099 0.10284,0.24019 0.11515,0.28953 0.0203,0.0815 0.0388,0.0959 0.20154,0.15777 l 0.17918,0.0681 0.007,0.32109 0.007,0.32109 -0.16734,0.0591 c -0.092,0.0325 -0.17751,0.0725 -0.18993,0.0889 -0.0124,0.0164 -0.049,0.10532 -0.0812,0.19758 -0.0322,0.0923 -0.0806,0.20616 -0.10759,0.2531 -0.0637,0.11092 -0.0627,0.12302 0.0266,0.31762 l 0.0756,0.16481 -0.22117,0.22351 -0.22117,0.22352 -0.18585,-0.0847 -0.18585,-0.0847 -0.0986,0.0595 c -0.0542,0.0327 -0.18317,0.0864 -0.28659,0.11926 l -0.18803,0.0598 -0.0719,0.1871 -0.0719,0.18711 h -0.31363 -0.31363 z m 0.84744,-1.12517 c 0.21502,-0.10585 0.41228,-0.3034 0.51859,-0.51934 0.0795,-0.16142 0.0835,-0.18391 0.0835,-0.46692 0,-0.27394 -0.006,-0.30901 -0.0728,-0.44567 -0.33588,-0.68422 -1.21622,-0.84635 -1.74883,-0.32208 -0.42967,0.42295 -0.43426,1.10762 -0.0103,1.53217 0.23605,0.23636 0.45843,0.3214 0.81454,0.31148 0.21834,-0.006 0.26685,-0.0166 0.41531,-0.0896 z m 6.2553,0.55522 c -0.005,-0.0177 -0.0173,-0.11356 -0.0262,-0.21292 -0.0321,-0.35853 -0.12992,-0.64558 -0.36044,-1.05812 -0.20014,-0.35818 -0.25217,-0.53257 -0.25408,-0.85166 -0.003,-0.46837 0.13898,-0.81461 0.47136,-1.15114 0.43546,-0.44088 1.04301,-0.58899 1.63908,-0.39958 0.92678,0.29451 1.38924,1.39022 0.94266,2.23348 -0.34453,0.65057 -0.42213,0.86658 -0.45564,1.26836 l -0.017,0.20384 h -0.24146 -0.24147 v -0.78714 -0.78714 l 0.12259,-1.5e-4 c 0.18327,-2.1e-4 0.30788,-0.0442 0.42524,-0.14997 0.29934,-0.26987 0.25838,-0.72067 -0.0844,-0.92912 -0.12848,-0.0781 -0.15579,-0.0848 -0.31165,-0.0768 -0.33717,0.0175 -0.5647,0.25569 -0.5647,0.59118 0,0.15157 -1.6e-4,0.1519 -0.0774,0.1519 h -0.0774 v -0.15513 c 0,-0.35004 -0.23614,-0.59413 -0.5734,-0.59273 -0.17375,7.2e-4 -0.31726,0.0663 -0.43785,0.20004 -0.21057,0.23356 -0.19838,0.55259 0.0298,0.78081 0.12802,0.12802 0.25755,0.17994 0.4489,0.17994 h 0.11959 v 0.78714 0.78714 h -0.23308 c -0.16394,0 -0.23604,-0.01 -0.24306,-0.0323 z m 0.88907,-0.75488 v -0.78714 h 0.0774 0.0774 v 0.78714 0.78713 h -0.0774 -0.0774 z m -0.68509,-1.26342 c -0.0768,-0.0768 -0.0808,-0.15149 -0.0117,-0.22054 0.12177,-0.12176 0.28389,-0.026 0.28389,0.16775 v 0.11614 h -0.1044 c -0.0764,0 -0.12138,-0.017 -0.16776,-0.0633 z m 1.25286,-0.0528 c 0,-0.13421 0.0651,-0.21936 0.16775,-0.21936 0.0824,0 0.16775,0.0848 0.16775,0.16674 0,0.098 -0.094,0.16876 -0.22423,0.16876 h -0.11127 z m -2.87137,-0.92954 c -0.22247,-0.13023 -0.29141,-0.21035 -0.26648,-0.3097 0.0232,-0.0924 0.10656,-0.16728 0.18612,-0.16728 0.0774,0 0.42599,0.1846 0.50138,0.26552 0.0695,0.0746 0.0639,0.18772 -0.0131,0.26471 -0.0913,0.0913 -0.18088,0.0796 -0.40789,-0.0533 z m 4.35415,0.0533 c -0.13103,-0.13102 -0.0708,-0.24703 0.21528,-0.41448 0.2256,-0.13206 0.31524,-0.14362 0.40645,-0.0524 0.13235,0.13235 0.0605,0.26473 -0.23097,0.42564 -0.21919,0.12099 -0.30225,0.12976 -0.39076,0.0412 z m -3.31992,-0.87219 c -0.0456,-0.0364 -0.23744,-0.3633 -0.26427,-0.45034 -0.0205,-0.0664 0.0408,-0.20032 0.10246,-0.22398 0.0852,-0.0327 0.1843,-0.015 0.23594,0.042 0.10125,0.11192 0.24879,0.39322 0.24973,0.47616 10e-4,0.11497 -0.0724,0.18839 -0.18911,0.18839 -0.0519,0 -0.1125,-0.0145 -0.13475,-0.0323 z m 2.44972,0 c -0.0234,-0.0177 -0.0543,-0.0642 -0.0688,-0.10322 -0.0226,-0.061 -0.0117,-0.099 0.0785,-0.27098 0.0577,-0.11001 0.12909,-0.22615 0.1587,-0.25809 0.10446,-0.11265 0.30829,-0.0551 0.34158,0.0965 0.0135,0.0614 -0.005,0.11736 -0.0923,0.27499 -0.0601,0.10885 -0.13066,0.21932 -0.15683,0.24549 -0.0548,0.0548 -0.19781,0.0632 -0.26086,0.0153 z m -1.19677,-0.30762 c -0.0846,-0.041 -0.11262,-0.13297 -0.11262,-0.36983 0,-0.24291 0.028,-0.32936 0.12019,-0.37137 0.0968,-0.0441 0.16017,-0.0345 0.22938,0.0347 0.0588,0.0588 0.0633,0.0819 0.0633,0.32048 0,0.3001 -0.008,0.32815 -0.10507,0.37846 -0.084,0.0434 -0.11844,0.0448 -0.19522,0.008 z"
         id="path17" /><circle
         style="fill:none;stroke:#ffffff;stroke-width:0.499999;stroke-linecap:round;stroke-linejoin:round;stroke-dasharray:none;stroke-opacity:1"
         id="path4"
         cx="11.540797"
         cy="41.285053"
         r="7.0949564" /><path
         style="fill:#f1761d;fill-opacity:0.996078;stroke-width:0.085808"
         d="m 89.601541,14.684987 c -0.11309,-0.05595 -0.19124,-0.184173 -0.19124,-0.313709 0,-0.363855 0.22913,-0.740483 0.54915,-0.902656 0.19011,-0.09634 0.34201,-0.1227 0.70689,-0.1227 0.30581,0 0.34686,-0.0051 0.4266,-0.04966 0.14017,-0.07874 0.17903,-0.185389 0.17903,-0.491113 v -0.253911 h 1.72547 1.72547 v 0.253911 c 0,0.305724 0.0389,0.412335 0.17903,0.491113 0.0795,0.04464 0.12101,0.04966 0.4189,0.04966 0.39096,0 0.51868,0.02304 0.72534,0.130591 0.5032,0.261998 0.7235,1.025891 0.34825,1.207547 -0.0962,0.04651 -0.11089,0.04677 -3.39848,0.04677 -3.26583,-1.7e-5 -3.30287,-4.93e-4 -3.39441,-0.04583 z m -2.22494,-2.860635 c -0.0576,-0.02849 -0.11118,-0.079 -0.1419,-0.133618 -0.0448,-0.07976 -0.0493,-0.120429 -0.0493,-0.442302 V 10.89394 h 5.81209 5.81208 v 0.344739 c 0,0.416101 -0.0296,0.506997 -0.19016,0.584746 l -0.0966,0.04677 -5.5268,-1.7e-5 c -5.49729,-1.7e-5 -5.52729,-2.38e-4 -5.61934,-0.04583 z M 87.185351,6.793393 V 3.373939 l 0.048,-0.08556 c 0.0265,-0.04711 0.0866,-0.107188 0.13363,-0.133626 l 0.0856,-0.04813 h 5.54481 5.54481 l 0.0882,0.04958 c 0.0563,0.03163 0.10469,0.08359 0.13363,0.143389 0.0448,0.09253 0.0454,0.140158 0.0454,3.503504 v 3.4097 h -5.81208 -5.81208 z m 9.22678,2.307531 c 0.25647,-0.06565 0.43063,-0.166383 0.62729,-0.363039 0.19665,-0.196664 0.29745,-0.37082 0.36304,-0.62729 0.082,-0.320317 0.0394,-0.668601 -0.11843,-0.969844 -0.0965,-0.184181 -0.37192,-0.459615 -0.55609,-0.556106 -0.18089,-0.09477 -0.45061,-0.163279 -0.64283,-0.163279 -0.19221,0 -0.46194,0.06854 -0.64283,0.163279 -0.18417,0.09649 -0.4596,0.371925 -0.5561,0.556106 -0.0948,0.180882 -0.16327,0.45061 -0.16327,0.642827 0,0.170303 0.064,0.448747 0.13528,0.588445 l 0.0473,0.09265 h -1.35832 c -1.11229,0 -1.36602,-0.0051 -1.40075,-0.03104 -0.0309,-0.02271 -0.0471,-0.07492 -0.0598,-0.193782 -0.0389,-0.364033 -0.25917,-0.640479 -0.58821,-0.738195 -0.0963,-0.02866 -0.2366,-0.03597 -0.68562,-0.03597 h -0.5645 l -0.0557,-0.0557 c -0.0508,-0.05085 -0.0557,-0.07347 -0.0557,-0.258308 0,-0.161816 0.008,-0.208858 0.038,-0.23374 0.0679,-0.05578 0.36674,-0.424674 0.48061,-0.593412 0.14627,-0.216767 0.29119,-0.507652 0.33312,-0.668652 0.15375,-0.590274 -0.20305,-1.230991 -0.80172,-1.439672 -0.18523,-0.06463 -0.47739,-0.079 -0.67175,-0.03316 -0.65513,0.154469 -1.09381,0.835622 -0.93379,1.449953 0.0799,0.306608 0.35447,0.761843 0.68814,1.140725 l 0.18035,0.204776 0.0103,0.27199 c 0.009,0.240408 0.0178,0.287756 0.0752,0.407717 0.0822,0.171996 0.23527,0.325555 0.40911,0.410592 l 0.13573,0.06641 0.62895,0.01148 c 0.45708,0.0085 0.63661,0.01922 0.65703,0.03963 0.0155,0.01548 0.0358,0.100131 0.0452,0.188102 0.0388,0.363302 0.25521,0.630615 0.59863,0.739504 0.0704,0.02236 0.55479,0.02917 2.15886,0.03027 1.98791,0.0017 2.07486,-2.46e-4 2.24343,-0.04337 z M 95.865621,8.42404 c -0.56957,-0.203578 -0.61937,-0.981893 -0.0798,-1.246876 0.18374,-0.09022 0.41481,-0.09022 0.59854,0 0.24354,0.119595 0.36954,0.326362 0.36954,0.606414 0,0.193407 -0.0472,0.322773 -0.16762,0.45998 -0.16276,0.185389 -0.48276,0.265527 -0.72068,0.180482 z m 0.37901,-0.345623 c 0.0593,-0.03027 0.10592,-0.07772 0.13782,-0.140226 0.12419,-0.243417 -0.0635,-0.519753 -0.33254,-0.489437 -0.3271,0.03682 -0.41727,0.460771 -0.13271,0.623914 0.11007,0.0631 0.21151,0.06488 0.32743,0.006 z m -6.64296,-1.980242 c -0.0992,-0.132062 -0.22109,-0.319499 -0.27098,-0.416518 -0.0773,-0.150353 -0.0905,-0.196766 -0.0895,-0.314313 0.003,-0.28818 0.20785,-0.50181 0.50887,-0.529106 0.31061,-0.02815 0.59115,0.234182 0.59108,0.552747 -3e-5,0.152964 -0.2339,0.572543 -0.47205,0.846948 l -0.0871,0.100369 z"
         id="path18" /><rect
         style="fill:#f1761d;fill-opacity:0.996078;stroke:none;stroke-width:0.499999;stroke-linecap:round;stroke-linejoin:round;stroke-dasharray:none;stroke-opacity:1"
         id="rect7"
         width="3.4879344"
         height="3.2490349"
         x="92.126518"
         y="64.381744" /></g></g></svg>
